<svg width="516.5" height="72.401" viewBox="0 0 516.5 72.401" xmlns="http://www.w3.org/2000/svg"><g id="svgGroup" stroke-linecap="round" fill-rule="evenodd" font-size="9pt" stroke="#000" stroke-width="0.25mm" fill="#000" style="stroke:#000;stroke-width:0.25mm;fill:#000"><path d="M 30.8 71.2 L 19 71.2 L 0 3.5 L 9.4 0.5 L 25.2 61.1 L 40.1 8.5 L 52 8.5 L 66.8 61.1 L 82.5 0.8 L 91.3 3.5 L 72.4 71.2 L 60.6 71.2 L 45.8 18.6 L 30.8 71.2 Z M 349.2 71.2 L 339.7 71.2 L 339.7 1.2 L 349.2 1.2 L 349.2 31.1 L 383.7 31.1 L 383.7 1.2 L 393.2 1.2 L 393.2 71.2 L 383.7 71.2 L 383.7 39.3 L 349.2 39.3 L 349.2 71.2 Z M 143.8 71.2 L 101.8 71.2 L 101.8 1.2 L 143.8 1.2 L 143.8 9.4 L 111.3 9.4 L 111.3 30.7 L 139.3 30.7 L 139.3 38.7 L 111.3 38.7 L 111.3 63 L 143.8 63 L 143.8 71.2 Z M 325.2 3.6 L 322.3 11.6 Q 319.2 10.1 315.95 9.2 Q 313.157 8.427 309.515 8.318 A 40.705 40.705 0 0 0 308.3 8.3 A 21.173 21.173 0 0 0 300.395 9.755 A 19.981 19.981 0 0 0 296.85 11.6 A 21.167 21.167 0 0 0 290.484 18.181 A 26.978 26.978 0 0 0 288.9 21.1 Q 286 27.3 286 36.1 Q 286 44.5 288.85 50.8 A 25.677 25.677 0 0 0 292.436 56.628 A 21.423 21.423 0 0 0 296.75 60.6 A 19.703 19.703 0 0 0 307.895 64.097 A 23.894 23.894 0 0 0 308.3 64.1 A 33.715 33.715 0 0 0 312.271 63.879 Q 314.747 63.585 316.8 62.9 Q 320.4 61.7 323.8 59.8 L 326.7 67.7 A 37.561 37.561 0 0 1 322.205 69.744 A 47.894 47.894 0 0 1 318.25 71.05 A 33.592 33.592 0 0 1 313.285 72.041 Q 310.803 72.355 308.006 72.395 A 57.414 57.414 0 0 1 307.2 72.4 A 32.384 32.384 0 0 1 297.875 71.099 A 27.961 27.961 0 0 1 291.1 68.05 A 28.6 28.6 0 0 1 281.223 57.605 A 34.916 34.916 0 0 1 280.2 55.65 A 37.611 37.611 0 0 1 277.101 45.933 Q 276.325 41.667 276.301 36.814 A 62.816 62.816 0 0 1 276.3 36.5 Q 276.3 25.8 280.25 17.55 Q 284.2 9.3 291.45 4.65 A 29.371 29.371 0 0 1 304.13 0.239 A 37.292 37.292 0 0 1 308.4 0 A 45.639 45.639 0 0 1 313.458 0.268 A 35.2 35.2 0 0 1 317.5 0.95 A 38.224 38.224 0 0 1 324.975 3.495 A 35.605 35.605 0 0 1 325.2 3.6 Z M 468 68.7 L 459.3 72.2 L 451.5 52.2 L 419.1 52.2 L 411.3 72 L 403.2 68.7 L 430.6 1.2 L 441 1.2 L 468 68.7 Z M 495 71.2 L 485.5 71.2 L 485.5 9.6 L 464 9.6 L 464 1.2 L 516.5 1.2 L 516.5 9.6 L 495 9.6 L 495 71.2 Z M 157.3 71 L 157.3 1.4 A 100.907 100.907 0 0 1 159.156 1.206 Q 162.053 0.93 165.876 0.707 A 270.552 270.552 0 0 1 166 0.7 A 168.416 168.416 0 0 1 170.837 0.495 Q 173.308 0.424 176.045 0.406 A 285.352 285.352 0 0 1 177.9 0.4 Q 186.3 0.4 192.159 2.489 A 22.604 22.604 0 0 1 197.6 5.25 A 16.711 16.711 0 0 1 202.163 9.907 Q 204.354 13.34 204.491 17.801 A 19.526 19.526 0 0 1 204.5 18.4 A 17.052 17.052 0 0 1 203.873 23.12 A 13.798 13.798 0 0 1 201.55 27.75 Q 198.6 31.6 193 34.1 A 30.217 30.217 0 0 1 197.636 36.16 Q 201.113 38.094 203.3 40.75 Q 206.8 45 206.8 51.2 Q 206.8 60.515 199.59 66.128 A 22.979 22.979 0 0 1 199.3 66.35 A 24.681 24.681 0 0 1 191.923 70.06 Q 185.879 72 177.5 72 A 221.836 221.836 0 0 1 169.42 71.858 A 187.566 187.566 0 0 1 165.95 71.7 A 227.449 227.449 0 0 1 163.366 71.544 Q 160.559 71.357 158.495 71.138 A 65.535 65.535 0 0 1 157.3 71 Z M 178.2 38.8 L 166.8 38.8 L 166.8 63.5 Q 172.1 64.1 178.2 64.1 Q 187.1 64.1 192.1 60.9 Q 197.1 57.7 197.1 51.6 A 11.728 11.728 0 0 0 196.228 47 Q 195.126 44.387 192.633 42.513 A 14.027 14.027 0 0 0 192.2 42.2 A 16.7 16.7 0 0 0 187.526 39.999 Q 183.603 38.8 178.2 38.8 Z M 435.3 10.6 L 422.1 44.2 L 448.4 44.2 L 435.3 10.6 Z M 166.8 8.6 L 166.8 31.4 L 177.8 31.4 Q 185.7 31.4 190.35 28.1 Q 195 24.8 195 19.6 A 10.798 10.798 0 0 0 194.326 15.701 Q 193.239 12.871 190.4 11.05 A 16.643 16.643 0 0 0 185.914 9.086 Q 182.425 8.1 177.8 8.1 Q 174.5 8.1 171.8 8.25 Q 169.1 8.4 166.8 8.6 Z M 258.3 41 L 224.3 41 L 224.3 32.8 L 258.3 32.8 L 258.3 41 Z" vector-effect="non-scaling-stroke"/></g></svg>